<?xml version="1.0" encoding="UTF-8"?><svg id="Layer_1" xmlns="http://www.w3.org/2000/svg" viewBox="0 0 438.67 269.88"><defs><style>.cls-1{fill:#fff;}.cls-2{fill:#e73743;}</style></defs><path class="cls-1" d="m264.53,164.78c-4.43.01-7.91,2.71-9.08,7.05l-.1.36h18.25l-.07-.34c-.96-4.88-5.21-7.07-9-7.07Zm.12,30.98c-10.94,0-19.19-8.24-19.19-19.17s8.13-19.2,18.9-19.2c9.95,0,17.68,6.75,18.79,16.42.21,1.76.13,3.11,0,4.29h-28.42l.02.3c.34,5.78,4.34,9.68,9.95,9.69,4.47,0,7.93-2.48,8.89-6.33h9.4c-1.55,8.39-8.88,14-18.33,14"/><polygon class="cls-1" points="109.57 150.01 73.56 150.01 73.56 158.43 87.36 158.43 87.36 194.91 95.78 194.91 95.78 158.43 109.57 158.43 109.57 150.01"/><path class="cls-1" d="m125.84,187.09h0c-2.72,0-5.2-1.03-7-2.9-1.83-1.91-2.84-4.62-2.84-7.61s1-5.69,2.82-7.6c1.79-1.88,4.27-2.92,7.03-2.92,5.68,0,9.81,4.42,9.81,10.52,0,6.09-4.13,10.52-9.83,10.52m9.82-22.85l-.52-.77c-2.64-3.92-6.74-6.09-11.57-6.09-9.57,0-16.8,8.25-16.8,19.19s7.09,19.18,16.85,19.19c4.81,0,8.9-2.1,11.51-5.92l.52-.76v5.83h8.43v-36.68h-8.43v6.01Z"/><path class="cls-1" d="m298.3,172.19l.1-.36c1.17-4.34,4.66-7.04,9.08-7.05,3.79,0,8.04,2.19,9,7.07l.07.34h-18.25Zm9.02-14.8c-10.78,0-18.9,8.26-18.9,19.2s8.25,19.17,19.19,19.17c9.45,0,16.78-5.61,18.33-14h-9.41c-.96,3.85-4.42,6.33-8.89,6.33-5.61-.01-9.61-3.91-9.95-9.69l-.02-.3h28.42c.14-1.18.22-2.53,0-4.29-1.12-9.67-8.84-16.42-18.79-16.42"/><path class="cls-1" d="m347.83,158.43h-14.98v36.49h8.42v-28.07h6.56c4.87,0,8.83,3.96,8.83,8.82v19.24h8.42v-19.24c0-9.51-7.74-17.24-17.24-17.24"/><path class="cls-1" d="m187.47,158.54h-36.78v36.49h8.63v-28.07h14.27v28.07h8.42v-28.07h5.46c4.87,0,8.83,3.96,8.83,8.83v19.24h8.42v-19.24c0-9.51-7.74-17.24-17.24-17.24"/><path class="cls-1" d="m226.8,178.51h-5.96l24.22-19.97h-12.11c-.74,0-1.45.25-2.03.72l-11.27,9.12v-18.37h-8.32v44.99h8.32v-14.95l14.25,14.25c.42.42,1,.66,1.6.66h10.83l-14.27-14.27c-1.4-1.4-3.29-2.18-5.26-2.18"/><path class="cls-1" d="m360.21,91.18c2.7,0,4.89-2.2,4.89-4.89s-2.2-4.89-4.89-4.89-4.89,2.2-4.89,4.89,2.2,4.89,4.89,4.89"/><path class="cls-1" d="m346.76,91.18c2.7,0,4.89-2.2,4.89-4.89s-2.2-4.89-4.89-4.89-4.89,2.2-4.89,4.89,2.2,4.89,4.89,4.89"/><path class="cls-1" d="m154.55,134.35c-2.7,0-4.89,2.2-4.89,4.89s2.2,4.89,4.89,4.89,4.89-2.2,4.89-4.89-2.2-4.89-4.89-4.89"/><path class="cls-1" d="m141.1,134.35c-2.7,0-4.89,2.2-4.89,4.89s2.2,4.89,4.89,4.89,4.89-2.2,4.89-4.89-2.2-4.89-4.89-4.89"/><path class="cls-1" d="m94.26,91.18c2.7,0,4.89-2.2,4.89-4.89s-2.2-4.89-4.89-4.89-4.89,2.2-4.89,4.89,2.2,4.89,4.89,4.89"/><path class="cls-1" d="m356.72,101.28v19.91h-22.93c.23-2.27.07-4.66-.59-7.09-1.98-7.29-7.92-12.69-15.37-13.9-12.05-1.96-22.49,7.32-22.49,19,0,.67.04,1.34.1,1.99h-27.78l-.07-6.5c-.1-7.56-6.33-13.7-13.87-13.7h-20.7l-10.8,8.34h30.37c3.14,0,5.74,2.56,5.78,5.71l.08,6.15h-99.01v-19.91h-8.38v19.91h-31.65v-29.44h-8.46v37.72h-20.03c-4.9,0-8.87-3.97-8.87-8.86v-19.33h-8.46v19.33c0,9.56,7.75,17.32,17.32,17.32h28.48v-8.36h178.99c3.43,5.34,9.41,8.89,16.23,8.89s12.8-3.55,16.23-8.89h34.26v-28.3h-8.39Zm-42.1,28.74c-5.97,0-10.83-4.86-10.83-10.83s4.86-10.82,10.83-10.82,10.82,4.85,10.82,10.82-4.85,10.83-10.82,10.83Z"/><path class="cls-2" d="m222.22,109.33l24.06-18.56c3.39-2.56,5.42-6.62,5.42-10.86v-5.78l-24.06,18.56c-3.39,2.56-5.42,6.62-5.42,10.86v5.78Z"/></svg>